<?xml version="1.0" encoding="UTF-8"?><svg id="Calque_2" xmlns="http://www.w3.org/2000/svg" viewBox="0 0 685.01 607"><defs><style>.cls-1{fill:#fff;}</style></defs><g id="Calque_1-2"><path class="cls-1" d="m48,95C21.5,95,0,116.5,0,143v416c0,26.5,21.5,48,48,48h96v-80c0-26.5,21.5-48,48-48s48,21.5,48,48v80h96c26.5,0,48-21.5,48-48V143c0-26.5-21.5-48-48-48H48Zm16,240c0-8.8,7.2-16,16-16h32c8.8,0,16,7.2,16,16v32c0,8.8-7.2,16-16,16h-32c-8.8,0-16-7.2-16-16v-32Zm112-16h32c8.8,0,16,7.2,16,16v32c0,8.8-7.2,16-16,16h-32c-8.8,0-16-7.2-16-16v-32c0-8.8,7.2-16,16-16Zm80,16c0-8.8,7.2-16,16-16h32c8.8,0,16,7.2,16,16v32c0,8.8-7.2,16-16,16h-32c-8.8,0-16-7.2-16-16v-32ZM80,191h32c8.8,0,16,7.2,16,16v32c0,8.8-7.2,16-16,16h-32c-8.8,0-16-7.2-16-16v-32c0-8.8,7.2-16,16-16Zm80,16c0-8.8,7.2-16,16-16h32c8.8,0,16,7.2,16,16v32c0,8.8-7.2,16-16,16h-32c-8.8,0-16-7.2-16-16v-32Zm112-16h32c8.8,0,16,7.2,16,16v32c0,8.8-7.2,16-16,16h-32c-8.8,0-16-7.2-16-16v-32c0-8.8,7.2-16,16-16Z"/><g><path class="cls-1" d="m660,212.51c0,6.9-5.59,12.49-12.49,12.49h-175.01c-6.9,0-12.49-5.59-12.49-12.49V37.5c0-6.9,5.59-12.49,12.49-12.49h87.5c6.9,0,12.5-5.6,12.5-12.5s-5.6-12.5-12.5-12.5h-87.5c-20.71,0-37.5,16.79-37.5,37.5v175.01c0,20.71,16.79,37.5,37.5,37.5h175.01c20.71,0,37.5-16.79,37.5-37.5v-87.5c0-6.9-5.6-12.5-12.5-12.5s-12.5,5.6-12.5,12.5v87.5Z"/><path class="cls-1" d="m642.21,3.67c-4.88-4.89-12.8-4.89-17.67,0l-104.35,104.34c-1.91,1.91-3.15,4.39-3.53,7.07l-6.53,45.66c-.55,3.9.75,7.83,3.54,10.61,2.78,2.79,6.7,4.09,10.61,3.54l45.66-6.53c2.67-.38,5.16-1.62,7.07-3.53l104.34-104.35c2.34-2.34,3.67-5.52,3.67-8.84s-1.32-6.49-3.67-8.84l-39.13-39.13Z"/></g></g></svg>