<?xml version="1.0" encoding="UTF-8"?><svg id="Calque_2" xmlns="http://www.w3.org/2000/svg" viewBox="0 0 685 626"><defs><style>.cls-1{fill:none;stroke:#fff;stroke-miterlimit:10;stroke-width:28px;}.cls-2{fill:#fff;}</style></defs><g id="Calque_1-2"><path class="cls-2" d="m48,114c-26.5,0-48,21.5-48,48v416c0,26.5,21.5,48,48,48h96v-80c0-26.5,21.5-48,48-48s48,21.5,48,48v80h96c26.5,0,48-21.5,48-48V162c0-26.5-21.5-48-48-48H48Zm16,240c0-8.8,7.2-16,16-16h32c8.8,0,16,7.2,16,16v32c0,8.8-7.2,16-16,16h-32c-8.8,0-16-7.2-16-16v-32Zm112-16h32c8.8,0,16,7.2,16,16v32c0,8.8-7.2,16-16,16h-32c-8.8,0-16-7.2-16-16v-32c0-8.8,7.2-16,16-16Zm80,16c0-8.8,7.2-16,16-16h32c8.8,0,16,7.2,16,16v32c0,8.8-7.2,16-16,16h-32c-8.8,0-16-7.2-16-16v-32ZM80,210h32c8.8,0,16,7.2,16,16v32c0,8.8-7.2,16-16,16h-32c-8.8,0-16-7.2-16-16v-32c0-8.8,7.2-16,16-16Zm80,16c0-8.8,7.2-16,16-16h32c8.8,0,16,7.2,16,16v32c0,8.8-7.2,16-16,16h-32c-8.8,0-16-7.2-16-16v-32Zm112-16h32c8.8,0,16,7.2,16,16v32c0,8.8-7.2,16-16,16h-32c-8.8,0-16-7.2-16-16v-32c0-8.8,7.2-16,16-16Z"/><path class="cls-2" d="m613.05,113.04h-41.09v-41.09c0-6.6-5.35-11.96-11.96-11.96s-11.96,5.35-11.96,11.96v41.09h-41.09c-6.62,0-11.96,5.37-11.96,11.96s5.35,11.96,11.96,11.96h41.09v41.09c0,6.6,5.35,11.96,11.96,11.96s11.96-5.35,11.96-11.96v-41.09h41.09c6.6,0,11.96-5.35,11.96-11.96s-5.35-11.96-11.96-11.96Z"/><circle class="cls-1" cx="560" cy="125" r="111"/></g></svg>