<?xml version="1.0" encoding="UTF-8"?><svg id="Calque_2" xmlns="http://www.w3.org/2000/svg" viewBox="0 0 859 607"><defs><style>.cls-1{fill:none;stroke:#212529;stroke-miterlimit:10;stroke-width:28px;}.cls-2{fill:#212529;}</style></defs><g id="Calque_1-2"><path class="cls-2" d="m32,159c17.7,0,32,14.3,32,32v256h224v-160c0-17.7,14.3-32,32-32h224c53,0,96,43,96,96v224c0,17.7-14.3,32-32,32s-32-14.3-32-32v-32H64v32c0,17.7-14.3,32-32,32S0,592.7,0,575V191c0-17.7,14.3-32,32-32Zm144,96c44.18,0,80,35.82,80,80s-35.82,80-80,80-80-35.82-80-80,35.82-80,80-80Z"/><path class="cls-2" d="m787.05,113.04h-41.09v-41.09c0-6.6-5.35-11.96-11.96-11.96s-11.96,5.35-11.96,11.96v41.09h-41.09c-6.62,0-11.96,5.37-11.96,11.96s5.35,11.96,11.96,11.96h41.09v41.09c0,6.6,5.35,11.96,11.96,11.96s11.96-5.35,11.96-11.96v-41.09h41.09c6.6,0,11.96-5.35,11.96-11.96s-5.35-11.96-11.96-11.96Z"/><circle class="cls-1" cx="734" cy="125" r="111"/></g></svg>