<?xml version="1.0" encoding="UTF-8"?><svg id="Calque_2" xmlns="http://www.w3.org/2000/svg" viewBox="0 0 525.86 525.86"><defs><style>.cls-1,.cls-2{fill:#fff;}.cls-2{fill-rule:evenodd;}</style></defs><g id="Calque_1-2"><g><path class="cls-2" d="m131.48,0C145.99,0,157.75,11.78,157.75,26.3v26.3h210.35v-26.3c0-14.52,11.76-26.3,26.28-26.3s26.3,11.78,26.3,26.3v26.3h26.3c43.55,0,78.88,35.3,78.88,78.88v315.5c0,43.55-35.32,78.88-78.88,78.88H78.88c-43.55,0-78.88-35.32-78.88-78.88V131.48C0,87.9,35.32,52.6,78.88,52.6h26.3v-26.3c0-14.52,11.78-26.3,26.3-26.3h0Zm-52.6,105.18c-14.52,0-26.28,11.78-26.28,26.3v26.28h420.66v-26.28c0-14.52-11.76-26.3-26.28-26.3H78.88Zm394.38,341.81v-236.63H52.6v236.63c0,14.52,11.76,26.28,26.28,26.28h368.11c14.52,0,26.28-11.76,26.28-26.28h0Z"/><g><path class="cls-1" d="m307.51,352.95c0-6.15-4.99-11.15-11.15-11.15s-11.15,4.99-11.15,11.15c0,12.31-9.98,22.29-22.29,22.29s-22.29-9.98-22.29-22.29c0-6.15-4.99-11.15-11.15-11.15s-11.15,4.99-11.15,11.15c0,24.62,19.97,44.57,44.58,44.57s44.58-19.96,44.58-44.57Z"/><path class="cls-2" d="m270.34,244.31c-4.22-3.75-10.58-3.75-14.82,0l-100.3,89.17c-3.46,3.07-4.65,7.96-3.01,12.29,1.64,4.33,5.79,7.19,10.42,7.19h11.15v78.01c0,6.15,4.98,11.15,11.14,11.15h156.04c6.15,0,11.14-4.99,11.14-11.15v-78.01h11.15c4.63,0,8.78-2.86,10.42-7.19,1.64-4.33.45-9.22-3.01-12.29l-100.3-89.17Zm-74.28,97.49c0-4.18-2.3-7.83-5.7-9.74l72.57-64.51,72.59,64.51c-3.42,1.91-5.72,5.56-5.72,9.74v78.02h-133.74v-78.02Z"/></g></g></g></svg>