<?xml version="1.0" encoding="UTF-8"?><svg id="Calque_2" xmlns="http://www.w3.org/2000/svg" viewBox="0 0 660 658"><defs><style>.cls-1{fill:none;stroke:#212529;stroke-miterlimit:10;stroke-width:28px;}.cls-2,.cls-3{fill:#212529;}.cls-3{fill-rule:evenodd;}</style></defs><g id="Calque_1-2"><path class="cls-2" d="m588.05,113.04h-41.09v-41.09c0-6.6-5.35-11.96-11.96-11.96s-11.96,5.35-11.96,11.96v41.09h-41.09c-6.62,0-11.96,5.37-11.96,11.96s5.35,11.96,11.96,11.96h41.09v41.09c0,6.6,5.35,11.96,11.96,11.96s11.96-5.35,11.96-11.96v-41.09h41.09c6.6,0,11.96-5.35,11.96-11.96s-5.35-11.96-11.96-11.96Z"/><circle class="cls-1" cx="535" cy="125" r="111"/><g><path class="cls-3" d="m350.34,267.27c0,66.97-54.29,121.27-121.27,121.27s-121.27-54.29-121.27-121.27,54.29-121.27,121.27-121.27,121.27,54.29,121.27,121.27"/><path class="cls-3" d="m458.14,644.53c0-126.42-102.65-229.07-229.07-229.07S0,518.11,0,644.53c0,7.43,6.04,13.47,13.49,13.47h431.16c7.45,0,13.49-6.04,13.49-13.47h0Z"/></g></g></svg>