<?xml version="1.0" encoding="UTF-8"?><svg id="Calque_2" xmlns="http://www.w3.org/2000/svg" viewBox="0 0 921.01 607"><defs><style>.cls-1{fill:#212529;}</style></defs><g id="Calque_1-2"><path class="cls-1" d="m32,159c17.7,0,32,14.3,32,32v256h224v-160c0-17.7,14.3-32,32-32h224c53,0,96,43,96,96v224c0,17.7-14.3,32-32,32s-32-14.3-32-32v-32H64v32c0,17.7-14.3,32-32,32S0,592.7,0,575V191c0-17.7,14.3-32,32-32Zm144,96c44.18,0,80,35.82,80,80s-35.82,80-80,80-80-35.82-80-80,35.82-80,80-80Z"/><g><path class="cls-1" d="m896,212.51c0,6.9-5.59,12.49-12.49,12.49h-175.01c-6.9,0-12.49-5.59-12.49-12.49V37.5c0-6.9,5.59-12.49,12.49-12.49h87.5c6.9,0,12.5-5.6,12.5-12.5s-5.6-12.5-12.5-12.5h-87.5c-20.71,0-37.5,16.79-37.5,37.5v175.01c0,20.71,16.79,37.5,37.5,37.5h175.01c20.71,0,37.5-16.79,37.5-37.5v-87.5c0-6.9-5.6-12.5-12.5-12.5s-12.5,5.6-12.5,12.5v87.5Z"/><path class="cls-1" d="m878.21,3.67c-4.88-4.89-12.8-4.89-17.67,0l-104.35,104.34c-1.91,1.91-3.15,4.39-3.53,7.07l-6.53,45.66c-.55,3.9.75,7.83,3.54,10.61,2.78,2.79,6.7,4.09,10.61,3.54l45.66-6.53c2.67-.38,5.16-1.62,7.07-3.53l104.34-104.35c2.34-2.34,3.67-5.52,3.67-8.84s-1.32-6.49-3.67-8.84l-39.13-39.13Z"/></g></g></svg>